<?xml version="1.0" encoding="UTF-8" standalone="no"?>
<svg
   xmlns:dc="http://purl.org/dc/elements/1.1/"
   xmlns:cc="http://creativecommons.org/ns#"
   xmlns:rdf="http://www.w3.org/1999/02/22-rdf-syntax-ns#"
   xmlns:svg="http://www.w3.org/2000/svg"
   xmlns="http://www.w3.org/2000/svg"
   xmlns:sodipodi="http://sodipodi.sourceforge.net/DTD/sodipodi-0.dtd"
   xmlns:inkscape="http://www.inkscape.org/namespaces/inkscape"
   width="450px"
   height="800px"
   viewBox="0 0 450 800"
   version="1.1"
   id="SVGRoot"
   inkscape:version="1.0.1 (3bc2e813f5, 2020-09-07)"
   sodipodi:docname="splash_screen.svg">
  <defs
     id="defs2" />
  <sodipodi:namedview
     id="base"
     pagecolor="#ffffff"
     bordercolor="#666666"
     borderopacity="1.0"
     inkscape:pageopacity="0.0"
     inkscape:pageshadow="2"
     inkscape:zoom="0.91875"
     inkscape:cx="314.03072"
     inkscape:cy="404.02526"
     inkscape:document-units="px"
     inkscape:current-layer="layer1"
     inkscape:document-rotation="0"
     showgrid="true"
     units="px"
     inkscape:window-width="1267"
     inkscape:window-height="967"
     inkscape:window-x="2102"
     inkscape:window-y="182"
     inkscape:window-maximized="0"
     inkscape:pagecheckerboard="true">
    <inkscape:grid
       type="xygrid"
       id="grid833"
       empspacing="4" />
  </sodipodi:namedview>
  <metadata
     id="metadata5">
    <rdf:RDF>
      <cc:Work
         rdf:about="">
        <dc:format>image/svg+xml</dc:format>
        <dc:type
           rdf:resource="http://purl.org/dc/dcmitype/StillImage" />
        <dc:title></dc:title>
      </cc:Work>
    </rdf:RDF>
  </metadata>
  <g
     inkscape:label="Layer 1"
     inkscape:groupmode="layer"
     id="layer1">
    <text
       xml:space="preserve"
       style="font-style:normal;font-weight:normal;font-size:40px;line-height:1.25;font-family:sans-serif;fill:#000000;fill-opacity:1;stroke:none"
       x="48"
       y="64"
       id="text1974"><tspan
         sodipodi:role="line"
         id="tspan1972"
         x="48"
         y="64"></tspan></text>
    <g
       aria-label="Biblio"
       id="text1986"
       style="font-style:normal;font-variant:normal;font-weight:normal;font-stretch:normal;font-size:144px;line-height:1.25;font-family:Impact;-inkscape-font-specification:Impact;fill:#ffffff">
      <path
         d="m 56.953125,48.558624 h 29.53125 q 13.992185,0 21.164065,2.179688 7.24219,2.179687 11.67187,8.859375 4.42969,6.609375 4.42969,21.375 0,9.984375 -3.16406,13.921875 -3.09375,3.9375 -12.30469,6.046878 10.26563,2.32031 13.92188,7.73437 3.65625,5.34375 3.65625,16.45313 v 10.54687 q 0,11.53125 -2.67188,17.08594 -2.60156,5.55469 -8.36719,7.59375 -5.76562,2.03906 -23.624998,2.03906 H 56.953125 Z m 29.601562,19.476563 v 25.3125 q 1.898438,-0.07031 2.953125,-0.07031 4.359375,0 5.554688,-2.109375 1.195312,-2.179687 1.195312,-12.304687 0,-5.34375 -0.984375,-7.453125 -0.984375,-2.179688 -2.601562,-2.742188 -1.546875,-0.5625 -6.117188,-0.632812 z m 0,43.031253 V 142.918 Q 92.8125,142.70706 94.5,140.94925 q 1.757812,-1.75781 1.757812,-8.64844 v -10.61719 q 0,-7.3125 -1.546875,-8.85937 -1.546875,-1.54688 -8.15625,-1.75781 z"
         id="path2070" />
      <path
         d="m 164.88281,48.558624 v 14.835938 h -29.25 V 48.558624 Z m 0,20.53125 v 93.304686 h -29.25 V 69.089874 Z"
         id="path2072" />
      <path
         d="m 203.48437,48.558624 v 26.929688 q 3.51563,-4.078125 7.80469,-6.046875 4.35938,-2.039063 9.42188,-2.039063 5.83593,0 10.125,1.828125 4.28906,1.828125 6.53906,5.132813 2.25,3.304687 2.67187,6.46875 0.49219,3.164062 0.49219,13.5 v 42.046878 q 0,10.26562 -1.40625,15.32812 -1.33594,4.99219 -6.39844,8.71875 -5.0625,3.65625 -12.02343,3.65625 -4.99219,0 -9.35157,-2.17969 -4.28906,-2.17968 -7.875,-6.53906 l -1.82812,7.03125 H 175.07812 V 48.558624 Z m 8.64844,47.039063 q 0,-7.242188 -0.91406,-9.421875 -0.91406,-2.25 -3.58594,-2.25 -2.60156,0 -3.375,1.96875 -0.77344,1.898437 -0.77344,9.703125 v 40.218753 q 0,7.52343 0.84375,9.63281 0.91407,2.10937 3.51563,2.10937 2.67187,0 3.44531,-2.17968 0.84375,-2.17969 0.84375,-10.47657 z"
         id="path2074" />
      <path
         d="M 279.14062,48.558624 V 162.39456 h -29.25 V 48.558624 Z"
         id="path2076" />
      <path
         d="m 318.58594,48.558624 v 14.835938 h -29.25 V 48.558624 Z m 0,20.53125 v 93.304686 h -29.25 V 69.089874 Z"
         id="path2078" />
      <path
         d="m 393.04687,101.8555 v 22.85156 q 0,12.58594 -1.26562,18.49219 -1.26563,5.83594 -5.41406,10.96875 -4.14844,5.0625 -10.6875,7.52344 -6.46875,2.39062 -14.90625,2.39062 -9.42188,0 -15.96094,-2.03906 -6.53906,-2.10938 -10.19531,-6.25781 -3.58594,-4.21875 -5.13282,-10.125 -1.54687,-5.97657 -1.54687,-17.85938 v -23.90625 q 0,-13.007811 2.8125,-20.320311 2.8125,-7.3125 10.125,-11.742187 7.3125,-4.429688 18.70312,-4.429688 9.5625,0 16.38282,2.882813 6.89062,2.8125 10.61718,7.382812 3.72657,4.570313 5.0625,9.421875 1.40625,4.851563 1.40625,14.765626 z m -28.40625,-7.031251 q 0,-7.171875 -0.77343,-9 -0.77344,-1.898437 -3.30469,-1.898437 -2.53125,0 -3.375,1.898437 -0.84375,1.828125 -0.84375,9 v 42.117191 q 0,6.60937 0.84375,8.64843 0.84375,1.96875 3.30469,1.96875 2.53125,0 3.30468,-1.82812 0.84375,-1.82813 0.84375,-7.875 z"
         id="path2080" />
    </g>
    <g
       id="layer2"
       inkscape:label="foreground"
       style="display:inline"
       transform="matrix(6.6666665,0,0,6.6666665,-21.385,62.303224)">
      <rect
         style="fill:#d42f2f;fill-opacity:1;stroke:#000000;stroke-width:0.446061;stroke-opacity:1"
         id="rect1323"
         width="6.6909385"
         height="31.224379"
         x="22.465179"
         y="21.161812"
         ry="0.89212513" />
      <rect
         style="fill:#27b984;fill-opacity:1;stroke:#000000;stroke-width:0.446061;stroke-opacity:1"
         id="rect1325"
         width="3.5685005"
         height="23.195253"
         x="29.156115"
         y="29.190935"
         ry="0.89212513" />
      <rect
         style="fill:#a52fd4;fill-opacity:1;stroke:#000000;stroke-width:0.446061;stroke-opacity:1"
         id="rect1327"
         width="6.2448759"
         height="27.655878"
         x="32.724617"
         y="24.730312"
         ry="0.89212465" />
      <rect
         style="fill:#446dd6;fill-opacity:1;stroke:#000000;stroke-width:0.446061;stroke-opacity:1"
         id="rect1329"
         width="6.2448759"
         height="29.886192"
         x="38.969494"
         y="22.5"
         ry="0.89212447" />
      <rect
         style="fill:#88911e;fill-opacity:1;stroke:#000000;stroke-width:0.42822;stroke-miterlimit:4;stroke-dasharray:none;stroke-opacity:1"
         id="rect1331"
         width="6.2448759"
         height="17.396441"
         x="45.214367"
         y="34.98975"
         ry="0.89212549" />
    </g>
    <text
       xml:space="preserve"
       style="font-size:96px;line-height:1.25;font-family:Forte;-inkscape-font-specification:'Forte, Normal'"
       x="112"
       y="512"
       id="text2046"><tspan
         sodipodi:role="line"
         id="tspan2044"
         x="112"
         y="512"></tspan></text>
    <g
       aria-label="Tech"
       id="text2054"
       style="font-size:144px;line-height:1.25;font-family:Forte;-inkscape-font-specification:'Forte, Normal';fill:#ffffff">
      <path
         d="m 152.15625,450.84442 v 22.78125 h -17.57813 v 91.05469 H 104.97656 V 473.62567 H 87.46875 v -22.78125 z"
         style="font-style:normal;font-variant:normal;font-weight:normal;font-stretch:normal;font-size:144px;font-family:Impact;-inkscape-font-specification:'Impact, Normal';font-variant-ligatures:normal;font-variant-caps:normal;font-variant-numeric:normal;font-variant-east-asian:normal;fill:#ffffff"
         id="path2083" />
      <path
         d="m 216.35156,519.68036 h -36.77344 v 20.17969 q 0,6.32812 0.91407,8.15625 0.91406,1.82812 3.51562,1.82812 3.23438,0 4.28906,-2.39062 1.125,-2.46094 1.125,-9.42188 v -12.30469 h 26.92969 v 6.89063 q 0,8.64844 -1.125,13.28906 -1.05469,4.64063 -5.0625,9.91406 -4.00781,5.27344 -10.19531,7.94532 -6.11719,2.60156 -15.39844,2.60156 -9,0 -15.89062,-2.60156 -6.89063,-2.60157 -10.75782,-7.10157 -3.79687,-4.57031 -5.27343,-9.98437 -1.47657,-5.48438 -1.47657,-15.89063 V 503.5788 q 0,-12.23438 3.30469,-19.26563 3.30469,-7.10156 10.82813,-10.82812 7.52343,-3.79688 17.29687,-3.79688 11.95313,0 19.6875,4.57031 7.80469,4.5 10.89844,12.02344 3.16406,7.45313 3.16406,21.02344 z M 187.875,504.49286 v -6.82031 q 0,-7.24219 -0.77344,-9.35157 -0.77344,-2.10937 -3.16406,-2.10937 -2.95313,0 -3.65625,1.82812 -0.70313,1.75782 -0.70313,9.63282 v 6.82031 z"
         style="font-style:normal;font-variant:normal;font-weight:normal;font-stretch:normal;font-size:144px;font-family:Impact;-inkscape-font-specification:'Impact, Normal';font-variant-ligatures:normal;font-variant-caps:normal;font-variant-numeric:normal;font-variant-east-asian:normal;fill:#ffffff"
         id="path2085" />
      <path
         d="m 288.42187,506.60223 h -26.78906 v -10.75781 q 0,-5.625 -0.91406,-7.59375 -0.91406,-2.03906 -3.375,-2.03906 -2.46094,0 -3.30469,1.75781 -0.84375,1.75781 -0.84375,7.875 v 44.01563 q 0,4.99218 1.26563,7.52343 1.26562,2.46094 3.72656,2.46094 2.88281,0 3.86719,-2.60156 1.05468,-2.60156 1.05468,-9.84375 v -11.10938 h 25.3125 q -0.0703,11.17969 -0.84375,16.80469 -0.70312,5.55469 -4.71093,11.46094 -3.9375,5.83594 -10.33594,8.85937 -6.39844,2.95313 -15.82031,2.95313 -12.02344,0 -19.05469,-4.07813 -7.03125,-4.14843 -9.98438,-11.53125 -2.88281,-7.45312 -2.88281,-21.09375 v -26.50781 q 0,-11.88281 2.39063,-17.92969 2.39062,-6.04687 10.19531,-10.75781 7.80469,-4.78125 18.98437,-4.78125 11.10938,0 18.98438,4.71094 7.875,4.71094 10.47656,11.88281 2.60156,7.17188 2.60156,20.32031 z"
         style="font-style:normal;font-variant:normal;font-weight:normal;font-stretch:normal;font-size:144px;font-family:Impact;-inkscape-font-specification:'Impact, Normal';font-variant-ligatures:normal;font-variant-caps:normal;font-variant-numeric:normal;font-variant-east-asian:normal;fill:#ffffff"
         id="path2087" />
      <path
         d="m 325.26562,450.84442 v 25.59375 q 3.65625,-3.375 7.875,-5.0625 4.28907,-1.6875 9.14063,-1.6875 7.45312,0 12.65625,3.79688 5.27344,3.79687 6.39844,8.78906 1.19531,4.92187 1.19531,18.07031 v 64.33594 H 334.125 v -65.67188 q 0,-8.15625 -0.84375,-10.47656 -0.77344,-2.32031 -3.58594,-2.32031 -2.60156,0 -3.51562,2.39062 -0.91407,2.39063 -0.91407,9.49219 v 66.58594 H 296.85937 V 450.84442 Z"
         style="font-style:normal;font-variant:normal;font-weight:normal;font-stretch:normal;font-size:144px;font-family:Impact;-inkscape-font-specification:'Impact, Normal';font-variant-ligatures:normal;font-variant-caps:normal;font-variant-numeric:normal;font-variant-east-asian:normal;fill:#ffffff"
         id="path2089" />
    </g>
    <text
       xml:space="preserve"
       style="font-style:normal;font-variant:normal;font-weight:normal;font-stretch:normal;font-size:42.6667px;line-height:1.25;font-family:Impact;-inkscape-font-specification:'Impact, Normal';font-variant-ligatures:normal;font-variant-caps:normal;font-variant-numeric:normal;font-variant-east-asian:normal"
       x="112"
       y="656"
       id="text2058"><tspan
         sodipodi:role="line"
         id="tspan2060"
         x="112"
         y="656"></tspan></text>
    <text
       xml:space="preserve"
       style="font-size:42.6667px;line-height:1.25;font-family:sans-serif;-inkscape-font-specification:'sans-serif, Normal'"
       x="112"
       y="624"
       id="text2064"><tspan
         sodipodi:role="line"
         id="tspan2062"
         x="112"
         y="624" /></text>
    <g
       aria-label="Cleve Ard"
       id="text2068"
       style="font-size:42.6667px;line-height:1.25;font-family:sans-serif;-inkscape-font-specification:'sans-serif, Normal';fill:#ffffff">
      <path
         d="m 180.10156,663.39423 h -6.57812 v -4.40625 q 0,-1.92188 -0.21875,-2.39063 -0.20313,-0.48437 -0.92188,-0.48437 -0.8125,0 -1.03125,0.57812 -0.21875,0.57813 -0.21875,2.5 v 11.75 q 0,1.84375 0.21875,2.40625 0.21875,0.5625 0.98438,0.5625 0.73437,0 0.95312,-0.5625 0.23438,-0.5625 0.23438,-2.64062 v -3.17188 h 6.57812 v 0.98438 q 0,3.92187 -0.5625,5.5625 -0.54687,1.64062 -2.45312,2.875 -1.89063,1.23437 -4.67188,1.23437 -2.89062,0 -4.76562,-1.04687 -1.875,-1.04688 -2.48438,-2.89063 -0.60937,-1.85937 -0.60937,-5.57812 v -7.39063 q 0,-2.73437 0.1875,-4.09375 0.1875,-1.375 1.10937,-2.64062 0.9375,-1.26563 2.57813,-1.98438 1.65625,-0.73437 3.79687,-0.73437 2.90625,0 4.79688,1.125 1.89062,1.125 2.48437,2.8125 0.59375,1.67187 0.59375,5.21875 z"
         style="font-style:normal;font-variant:normal;font-weight:normal;font-stretch:normal;font-size:32px;font-family:Impact;-inkscape-font-specification:'Impact, Normal';font-variant-ligatures:normal;font-variant-caps:normal;font-variant-numeric:normal;font-variant-east-asian:normal;fill:#ffffff"
         id="path2092" />
      <path
         d="m 188.77344,652.36298 v 25.29687 h -6.5 v -25.29687 z"
         style="font-style:normal;font-variant:normal;font-weight:normal;font-stretch:normal;font-size:32px;font-family:Impact;-inkscape-font-specification:'Impact, Normal';font-variant-ligatures:normal;font-variant-caps:normal;font-variant-numeric:normal;font-variant-east-asian:normal;fill:#ffffff"
         id="path2094" />
      <path
         d="m 205.33594,667.65985 h -8.17188 v 4.48438 q 0,1.40625 0.20313,1.8125 0.20312,0.40625 0.78125,0.40625 0.71875,0 0.95312,-0.53125 0.25,-0.54688 0.25,-2.09375 v -2.73438 h 5.98438 v 1.53125 q 0,1.92188 -0.25,2.95313 -0.23438,1.03125 -1.125,2.20312 -0.89063,1.17188 -2.26563,1.76563 -1.35937,0.57812 -3.42187,0.57812 -2,0 -3.53125,-0.57812 -1.53125,-0.57813 -2.39063,-1.57813 -0.84375,-1.01562 -1.17187,-2.21875 -0.32813,-1.21875 -0.32813,-3.53125 v -6.04687 q 0,-2.71875 0.73438,-4.28125 0.73437,-1.57813 2.40625,-2.40625 1.67187,-0.84375 3.84375,-0.84375 2.65625,0 4.375,1.01562 1.73437,1 2.42187,2.67188 0.70313,1.65625 0.70313,4.67187 z m -6.32813,-3.375 v -1.51562 q 0,-1.60938 -0.17187,-2.07813 -0.17188,-0.46875 -0.70313,-0.46875 -0.65625,0 -0.8125,0.40625 -0.15625,0.39063 -0.15625,2.14063 v 1.51562 z"
         style="font-style:normal;font-variant:normal;font-weight:normal;font-stretch:normal;font-size:32px;font-family:Impact;-inkscape-font-specification:'Impact, Normal';font-variant-ligatures:normal;font-variant-caps:normal;font-variant-numeric:normal;font-variant-east-asian:normal;fill:#ffffff"
         id="path2096" />
      <path
         d="m 220.44531,656.92548 -2.95312,20.73437 h -8.23438 l -3.17187,-20.73437 h 5.64062 l 1.76563,15.125 q 0.20312,-1.65625 0.6875,-8.125 0.28125,-3.60938 0.625,-7 z"
         style="font-style:normal;font-variant:normal;font-weight:normal;font-stretch:normal;font-size:32px;font-family:Impact;-inkscape-font-specification:'Impact, Normal';font-variant-ligatures:normal;font-variant-caps:normal;font-variant-numeric:normal;font-variant-east-asian:normal;fill:#ffffff"
         id="path2098" />
      <path
         d="m 235.67969,667.65985 h -8.17188 v 4.48438 q 0,1.40625 0.20313,1.8125 0.20312,0.40625 0.78125,0.40625 0.71875,0 0.95312,-0.53125 0.25,-0.54688 0.25,-2.09375 v -2.73438 h 5.98438 v 1.53125 q 0,1.92188 -0.25,2.95313 -0.23438,1.03125 -1.125,2.20312 -0.89063,1.17188 -2.26563,1.76563 -1.35937,0.57812 -3.42187,0.57812 -2,0 -3.53125,-0.57812 -1.53125,-0.57813 -2.39063,-1.57813 -0.84375,-1.01562 -1.17187,-2.21875 -0.32813,-1.21875 -0.32813,-3.53125 v -6.04687 q 0,-2.71875 0.73438,-4.28125 0.73437,-1.57813 2.40625,-2.40625 1.67187,-0.84375 3.84375,-0.84375 2.65625,0 4.375,1.01562 1.73437,1 2.42187,2.67188 0.70313,1.65625 0.70313,4.67187 z m -6.32813,-3.375 v -1.51562 q 0,-1.60938 -0.17187,-2.07813 -0.17188,-0.46875 -0.70313,-0.46875 -0.65625,0 -0.8125,0.40625 -0.15625,0.39063 -0.15625,2.14063 v 1.51562 z"
         style="font-style:normal;font-variant:normal;font-weight:normal;font-stretch:normal;font-size:32px;font-family:Impact;-inkscape-font-specification:'Impact, Normal';font-variant-ligatures:normal;font-variant-caps:normal;font-variant-numeric:normal;font-variant-east-asian:normal;fill:#ffffff"
         id="path2100" />
      <path
         d="m 254.92969,652.36298 3.76562,25.29687 h -6.73437 l -0.32813,-4.54687 h -2.35937 l -0.39063,4.54687 h -6.8125 l 3.34375,-25.29687 z m -3.48438,16.26562 q -0.5,-4.29687 -1,-10.60937 -1,7.25 -1.25,10.60937 z"
         style="font-style:normal;font-variant:normal;font-weight:normal;font-stretch:normal;font-size:32px;font-family:Impact;-inkscape-font-specification:'Impact, Normal';font-variant-ligatures:normal;font-variant-caps:normal;font-variant-numeric:normal;font-variant-east-asian:normal;fill:#ffffff"
         id="path2102" />
      <path
         d="m 265.94531,656.92548 -0.25,2.71875 q 1.375,-2.92188 3.98438,-3.09375 v 7.29687 q -1.73438,0 -2.54688,0.46875 -0.8125,0.46875 -1,1.3125 -0.1875,0.82813 -0.1875,3.84375 v 8.1875 h -6.3125 v -20.73437 z"
         style="font-style:normal;font-variant:normal;font-weight:normal;font-stretch:normal;font-size:32px;font-family:Impact;-inkscape-font-specification:'Impact, Normal';font-variant-ligatures:normal;font-variant-caps:normal;font-variant-numeric:normal;font-variant-east-asian:normal;fill:#ffffff"
         id="path2104" />
      <path
         d="m 285.44531,652.36298 v 25.29687 h -6.3125 v -1.5 q -0.90625,0.9375 -1.90625,1.40625 -1,0.46875 -2.09375,0.46875 -1.46875,0 -2.54687,-0.76562 -1.07813,-0.78125 -1.39063,-1.79688 -0.29687,-1.01562 -0.29687,-3.3125 v -9.70312 q 0,-2.39063 0.29687,-3.39063 0.3125,-1 1.40625,-1.75 1.09375,-0.76562 2.60938,-0.76562 1.17187,0 2.14062,0.42187 0.98438,0.42188 1.78125,1.26563 v -5.875 z m -6.3125,9.78125 q 0,-1.14063 -0.20312,-1.53125 -0.1875,-0.39063 -0.76563,-0.39063 -0.5625,0 -0.76562,0.35938 -0.1875,0.34375 -0.1875,1.5625 v 10.15625 q 0,1.26562 0.1875,1.67187 0.1875,0.39063 0.71875,0.39063 0.60937,0 0.8125,-0.4375 0.20312,-0.45313 0.20312,-2.1875 z"
         style="font-style:normal;font-variant:normal;font-weight:normal;font-stretch:normal;font-size:32px;font-family:Impact;-inkscape-font-specification:'Impact, Normal';font-variant-ligatures:normal;font-variant-caps:normal;font-variant-numeric:normal;font-variant-east-asian:normal;fill:#ffffff"
         id="path2106" />
    </g>
  </g>
</svg>
